<svg width="24" height="24" viewBox="0 0 24 24" fill="none" xmlns="http://www.w3.org/2000/svg">
<path fill-rule="evenodd" clip-rule="evenodd" d="M20.6196 7.93867C20.5378 7.82051 20.4286 7.72393 20.3014 7.65721C20.1741 7.59049 20.0326 7.55561 19.8889 7.55556H7.74044L6.71467 5.09334C6.58017 4.76909 6.35242 4.49208 6.06029 4.29744C5.76816 4.10279 5.42481 3.99927 5.07378 4H3V5.77778H5.07378L9.29067 15.8978C9.35821 16.0597 9.47216 16.198 9.61816 16.2953C9.76415 16.3926 9.93567 16.4445 10.1111 16.4444H17.2222C17.5929 16.4444 17.9244 16.2142 18.0551 15.8684L20.7218 8.75734C20.7722 8.62278 20.7892 8.47801 20.7714 8.33543C20.7536 8.19285 20.7015 8.05671 20.6196 7.93867ZM10.5556 20C11.2919 20 11.8889 19.403 11.8889 18.6667C11.8889 17.9303 11.2919 17.3333 10.5556 17.3333C9.81918 17.3333 9.22222 17.9303 9.22222 18.6667C9.22222 19.403 9.81918 20 10.5556 20ZM18.1111 18.6667C18.1111 19.403 17.5142 20 16.7778 20C16.0414 20 15.4444 19.403 15.4444 18.6667C15.4444 17.9303 16.0414 17.3333 16.7778 17.3333C17.5142 17.3333 18.1111 17.9303 18.1111 18.6667Z" fill="#FAFAFA"/>
</svg>
