<svg width="24" height="24" viewBox="0 0 24 24" fill="none" xmlns="http://www.w3.org/2000/svg">
<g clip-path="url(#clip0_23143_1590)">
<path d="M7.8 9.6001L6 14.4001V20.4001H7.8V19.2001H16.2V20.4001H18V14.4001L16.248 9.6001H7.8ZM9.3 17.1001C8.808 17.1001 8.4 16.6921 8.4 16.2001C8.4 15.7081 8.808 15.3001 9.3 15.3001C9.792 15.3001 10.2 15.7081 10.2 16.2001C10.2 16.6921 9.792 17.1001 9.3 17.1001ZM14.7 17.1001C14.208 17.1001 13.8 16.6921 13.8 16.2001C13.8 15.7081 14.208 15.3001 14.7 15.3001C15.192 15.3001 15.6 15.7081 15.6 16.2001C15.6 16.6921 15.192 17.1001 14.7 17.1001ZM8.376 13.2001L9.048 11.4001H14.988L15.648 13.2001H8.376Z" fill="#FAFAFA"/>
<path d="M11.2439 3.3002C10.8599 2.0882 9.7319 1.2002 8.3999 1.2002C6.7439 1.2002 5.3999 2.5442 5.3999 4.2002C5.3999 5.8562 6.7439 7.2002 8.3999 7.2002C9.7319 7.2002 10.8599 6.3122 11.2439 5.1002H14.9999V7.2002H16.7999V5.1002H17.9999V3.3002H11.2439ZM8.3999 5.4002C7.7519 5.4002 7.1999 4.8482 7.1999 4.2002C7.1999 3.5522 7.7519 3.0002 8.3999 3.0002C9.0479 3.0002 9.5999 3.5522 9.5999 4.2002C9.5999 4.8482 9.0479 5.4002 8.3999 5.4002Z" fill="#FAFAFA"/>
</g>
<defs>
<clipPath id="clip0_23143_1590">
<rect width="24" height="24" fill="white"/>
</clipPath>
</defs>
</svg>
